<?xml version="1.0" encoding="utf-8"?>
<!-- Uploaded to: SVG Repo, www.svgrepo.com, Generator: SVG Repo Mixer Tools -->
<svg width="800px" height="800px" viewBox="0 0 1024 1024" fill="#000000" class="icon"  version="1.1" xmlns="http://www.w3.org/2000/svg"><path d="M332.311351 1023.998h-83.061838c-14.749971-0.062-41.12592-17.125967-41.875918-17.811965C74.875854 875.936289 0 697.810637 0 511.875 0 325.437364 75.311853 146.749713 208.561593 16.437968 208.625593 16.375968 234.499542 0 249.249513 0h83.061838c30.437941 0 66.49987 22.249957 80.125843 49.561903l5.811989 11.687977c13.561974 27.187947 12.375976 71.125861-2.687995 97.49981l-55.811891 97.625809c-15.12597 26.437948-52.375898 48.499905-82.811838 48.499906H221.499567c-73.625856 127.99975-73.625856 286.187441-0.061999 414.24919h55.499891c30.437941 0 67.687868 22.061957 82.811838 48.499906l55.749891 97.625809c15.061971 26.375948 16.311968 70.187863 2.749995 97.56181l-5.811989 11.687977C398.749221 1001.686044 362.749292 1023.998 332.311351 1023.998zM1023.998 255.9995v511.999c0 70.687862-57.311888 127.99975-127.99975 127.99975H489.375044c-2.499995-22.437956-7.937984-44.311913-18.311964-62.499878l-55.749891-97.625809c-26.811948-46.811909-84.937834-80.749842-138.37573-80.749843h-16.311968c-40.375921-90.875823-40.375921-195.437618 0-286.24944h16.311968c53.437896 0 111.561782-33.937934 138.37573-80.749843l55.811891-97.625809c10.37598-18.187964 15.811969-40.125922 18.311964-62.499878H895.99825C966.686112 127.99975 1023.998 185.311638 1023.998 255.9995zM655.998719 735.998563c0-26.499948-21.499958-47.999906-47.999906-47.999907s-47.999906 21.499958-47.999907 47.999907 21.499958 47.999906 47.999907 47.999906 47.999906-21.499958 47.999906-47.999906z m0-127.99975c0-26.499948-21.499958-47.999906-47.999906-47.999907s-47.999906 21.499958-47.999907 47.999907 21.499958 47.999906 47.999907 47.999906 47.999906-21.499958 47.999906-47.999906z m0-127.99975c0-26.499948-21.499958-47.999906-47.999906-47.999907s-47.999906 21.499958-47.999907 47.999907 21.499958 47.999906 47.999907 47.999906 47.999906-21.499958 47.999906-47.999906z m127.99975 255.9995c0-26.499948-21.499958-47.999906-47.999906-47.999907s-47.999906 21.499958-47.999907 47.999907 21.499958 47.999906 47.999907 47.999906 47.999906-21.499958 47.999906-47.999906z m0-127.99975c0-26.499948-21.499958-47.999906-47.999906-47.999907s-47.999906 21.499958-47.999907 47.999907 21.499958 47.999906 47.999907 47.999906 47.999906-21.499958 47.999906-47.999906z m0-127.99975c0-26.499948-21.499958-47.999906-47.999906-47.999907s-47.999906 21.499958-47.999907 47.999907 21.499958 47.999906 47.999907 47.999906 47.999906-21.499958 47.999906-47.999906z m127.99975 255.9995c0-26.499948-21.499958-47.999906-47.999906-47.999907s-47.999906 21.499958-47.999907 47.999907 21.499958 47.999906 47.999907 47.999906 47.999906-21.499958 47.999906-47.999906z m0-127.99975c0-26.499948-21.499958-47.999906-47.999906-47.999907s-47.999906 21.499958-47.999907 47.999907 21.499958 47.999906 47.999907 47.999906 47.999906-21.499958 47.999906-47.999906z m0-127.99975c0-26.499948-21.499958-47.999906-47.999906-47.999907s-47.999906 21.499958-47.999907 47.999907 21.499958 47.999906 47.999907 47.999906 47.999906-21.499958 47.999906-47.999906z m0-191.999625c0-17.687965-14.311972-31.999938-31.999938-31.999938H591.998844c-17.687965 0-31.999938 14.311972-31.999938 31.999938v63.999875c0 17.687965 14.311972 31.999938 31.999938 31.999937h287.999437c17.687965 0 31.999938-14.311972 31.999938-31.999937v-63.999875z" /></svg>